<svg id="SvgjsSvg1093" width="687.5" height="505" xmlns="http://www.w3.org/2000/svg" version="1.1" xmlns:xlink="http://www.w3.org/1999/xlink" xmlns:svgjs="http://svgjs.com/svgjs"><defs id="SvgjsDefs1094"><marker id="SvgjsMarker1118" markerWidth="16" markerHeight="12" refX="16" refY="6" viewBox="0 0 16 12" orient="auto" markerUnits="userSpaceOnUse"><path id="SvgjsPath1119" d="M0,2 L14,6 L0,11 L0,2" fill="#323232" stroke="#323232" stroke-width="2"></path></marker><marker id="SvgjsMarker1126" markerWidth="16" markerHeight="12" refX="16" refY="6" viewBox="0 0 16 12" orient="auto" markerUnits="userSpaceOnUse"><path id="SvgjsPath1127" d="M0,2 L14,6 L0,11 L0,2" fill="#323232" stroke="#323232" stroke-width="2"></path></marker><marker id="SvgjsMarker1134" markerWidth="16" markerHeight="12" refX="16" refY="6" viewBox="0 0 16 12" orient="auto" markerUnits="userSpaceOnUse"><path id="SvgjsPath1135" d="M0,2 L14,6 L0,11 L0,2" fill="#323232" stroke="#323232" stroke-width="2"></path></marker><marker id="SvgjsMarker1151" markerWidth="16" markerHeight="12" refX="16" refY="6" viewBox="0 0 16 12" orient="auto" markerUnits="userSpaceOnUse"><path id="SvgjsPath1152" d="M0,2 L14,6 L0,11 L0,2" fill="#323232" stroke="#323232" stroke-width="2"></path></marker><marker id="SvgjsMarker1159" markerWidth="16" markerHeight="12" refX="16" refY="6" viewBox="0 0 16 12" orient="auto" markerUnits="userSpaceOnUse"><path id="SvgjsPath1160" d="M0,2 L14,6 L0,11 L0,2" fill="#323232" stroke="#323232" stroke-width="2"></path></marker><marker id="SvgjsMarker1167" markerWidth="16" markerHeight="12" refX="16" refY="6" viewBox="0 0 16 12" orient="auto" markerUnits="userSpaceOnUse"><path id="SvgjsPath1168" d="M0,2 L14,6 L0,11 L0,2" fill="#323232" stroke="#323232" stroke-width="2"></path></marker><marker id="SvgjsMarker1175" markerWidth="16" markerHeight="12" refX="16" refY="6" viewBox="0 0 16 12" orient="auto" markerUnits="userSpaceOnUse"><path id="SvgjsPath1176" d="M0,2 L14,6 L0,11 L0,2" fill="#323232" stroke="#323232" stroke-width="2"></path></marker></defs><rect id="SvgjsRect1095" width="687.5" height="505" fill="#ffffff"></rect><g id="SvgjsG1096" transform="translate(109.5,25)"><path id="SvgjsPath1097" d="M 43 30L 43 455" stroke-dasharray="3,4" stroke="#323232" stroke-width="2" fill="none"></path><path id="SvgjsPath1098" d="M 0 0L 86 0L 86 30L 0 30Z" stroke="#323232" stroke-width="2" fill-opacity="1" fill="#ffffff"></path><g id="SvgjsG1099"><text id="SvgjsText1100" font-family="微软雅黑" text-anchor="middle" font-size="13px" width="55" fill="#323232" font-weight="400" align="middle" anchor="middle" family="微软雅黑" size="13px" weight="400" font-style="" y="-2.95" transform="rotate(0)"><tspan id="SvgjsTspan1101" dy="16" x="43"><tspan id="SvgjsTspan1102" style="text-decoration:;">User's </tspan></tspan><tspan id="SvgjsTspan1103" dy="16" x="43"><tspan id="SvgjsTspan1104" style="text-decoration:;">browsers</tspan></tspan></text></g></g><g id="SvgjsG1105" transform="translate(336.5,25)"><path id="SvgjsPath1106" d="M 44 30L 44 450" stroke-dasharray="3,4" stroke="#323232" stroke-width="2" fill="none"></path><path id="SvgjsPath1107" d="M 0 0L 88 0L 88 30L 0 30Z" stroke="#323232" stroke-width="2" fill-opacity="1" fill="#ffffff"></path><g id="SvgjsG1108"><text id="SvgjsText1109" font-family="微软雅黑" text-anchor="middle" font-size="13px" width="31" fill="#323232" font-weight="400" align="middle" anchor="middle" family="微软雅黑" size="13px" weight="400" font-style="" y="5.05" transform="rotate(0)"><tspan id="SvgjsTspan1110" dy="16" x="44"><tspan id="SvgjsTspan1111" style="text-decoration:;">Flask</tspan></tspan></text></g></g><g id="SvgjsG1112" transform="translate(140,67)"><path id="SvgjsPath1113" d="M 0 4Q 0 0 4 0L 26 0Q 30 0 30 4L 30 367Q 30 371 26 371L 4 371Q 0 371 0 367L 0 4Z" stroke="#323232" stroke-width="2" fill-opacity="1" fill="#ffffff"></path></g><g id="SvgjsG1114" transform="translate(365.5,76)"><path id="SvgjsPath1115" d="M 0 4Q 0 0 4 0L 26 0Q 30 0 30 4L 30 364Q 30 368 26 368L 4 368Q 0 368 0 364L 0 4Z" stroke="#323232" stroke-width="2" fill-opacity="1" fill="#ffffff"></path></g><g id="SvgjsG1116"><path id="SvgjsPath1117" d="M169.5 96L267.5 96L267.5 96L365.5 96" stroke="#323232" stroke-width="2" fill="none" marker-end="url(#SvgjsMarker1118)"></path><rect id="SvgjsRect1120" width="85" height="16" x="220.10000000000002" y="75" fill="#ffffff"></rect><text id="SvgjsText1121" font-family="微软雅黑" text-anchor="middle" font-size="13px" width="85" fill="#323232" font-weight="400" align="top" anchor="middle" family="微软雅黑" size="13px" weight="400" font-style="" y="73.05" transform="rotate(0)"><tspan id="SvgjsTspan1122" dy="16" x="262.6"><tspan id="SvgjsTspan1123" style="text-decoration:;">1. GET /signin</tspan></tspan></text></g><g id="SvgjsG1124"><path id="SvgjsPath1125" d="M365.5 143L267.5 143L267.5 143L169.5 143" stroke-dasharray="8,5" stroke="#323232" stroke-width="2" fill="none" marker-end="url(#SvgjsMarker1126)"></path><rect id="SvgjsRect1128" width="157" height="16" x="193.89999999999992" y="122" fill="#ffffff"></rect><text id="SvgjsText1129" font-family="微软雅黑" text-anchor="middle" font-size="13px" width="157" fill="#323232" font-weight="400" align="top" anchor="middle" family="微软雅黑" size="13px" weight="400" font-style="" y="120.05" transform="rotate(0)"><tspan id="SvgjsTspan1130" dy="16" x="272.3999999999999"><tspan id="SvgjsTspan1131" style="text-decoration:;">2. Return LoginForm View</tspan></tspan></text></g><g id="SvgjsG1132"><path id="SvgjsPath1133" d="M169.5 207L267.5 207L267.5 206.43037974683546L365.5 206.43037974683546" stroke="#323232" stroke-width="2" fill="none" marker-end="url(#SvgjsMarker1134)"></path><rect id="SvgjsRect1136" width="197" height="16" x="169" y="186" fill="#ffffff"></rect><text id="SvgjsText1137" font-family="微软雅黑" text-anchor="middle" font-size="13px" width="197" fill="#323232" font-weight="400" align="top" anchor="middle" family="微软雅黑" size="13px" weight="400" font-style="" y="184.05" transform="rotate(0)"><tspan id="SvgjsTspan1138" dy="16" x="267.5"><tspan id="SvgjsTspan1139" style="text-decoration:;">3. POST finished form to /signin</tspan></tspan></text></g><g id="SvgjsG1140" transform="translate(577.5,25)"><path id="SvgjsPath1141" d="M 42.5 30L 42.5 450" stroke-dasharray="3,4" stroke="#323232" stroke-width="2" fill="none"></path><path id="SvgjsPath1142" d="M 0 0L 85 0L 85 30L 0 30Z" stroke="#323232" stroke-width="2" fill-opacity="1" fill="#ffffff"></path><g id="SvgjsG1143"><text id="SvgjsText1144" font-family="微软雅黑" text-anchor="middle" font-size="13px" width="57" fill="#323232" font-weight="400" align="middle" anchor="middle" family="微软雅黑" size="13px" weight="400" font-style="" y="5.05" transform="rotate(0)"><tspan id="SvgjsTspan1145" dy="16" x="42.5"><tspan id="SvgjsTspan1146" style="text-decoration:;">Database</tspan></tspan></text></g></g><g id="SvgjsG1147" transform="translate(605,227)"><path id="SvgjsPath1148" d="M 0 4Q 0 0 4 0L 26 0Q 30 0 30 4L 30 175Q 30 179 26 179L 4 179Q 0 179 0 175L 0 4Z" stroke="#323232" stroke-width="2" fill-opacity="1" fill="#ffffff"></path></g><g id="SvgjsG1149"><path id="SvgjsPath1150" d="M395.5 240L500.5 240L500.5 240L605.5 240" stroke="#323232" stroke-width="2" fill="none" marker-end="url(#SvgjsMarker1151)"></path><rect id="SvgjsRect1153" width="174" height="16" x="408.2500000000001" y="219" fill="#ffffff"></rect><text id="SvgjsText1154" font-family="微软雅黑" text-anchor="middle" font-size="13px" width="174" fill="#323232" font-weight="400" align="top" anchor="middle" family="微软雅黑" size="13px" weight="400" font-style="" y="217.05" transform="rotate(0)"><tspan id="SvgjsTspan1155" dy="16" x="495.2500000000001"><tspan id="SvgjsTspan1156" style="text-decoration:;">4. Fetch User with username</tspan></tspan></text></g><g id="SvgjsG1157"><path id="SvgjsPath1158" d="M605.5 305L500.5 305L500.5 305L395.5 305" stroke-dasharray="8,5" stroke="#323232" stroke-width="2" fill="none" marker-end="url(#SvgjsMarker1159)"></path><rect id="SvgjsRect1161" width="207" height="16" x="402" y="284" fill="#ffffff"></rect><text id="SvgjsText1162" font-family="微软雅黑" text-anchor="middle" font-size="13px" width="207" fill="#323232" font-weight="400" align="top" anchor="middle" family="微软雅黑" size="13px" weight="400" font-style="" y="282.05" transform="rotate(0)"><tspan id="SvgjsTspan1163" dy="16" x="505.5"><tspan id="SvgjsTspan1164" style="text-decoration:;">5. Return a User instance or None</tspan></tspan></text></g><g id="SvgjsG1165"><path id="SvgjsPath1166" d="M365.5 326L267.5 326L267.5 326L169.5 326" stroke-dasharray="8,5" stroke="#323232" stroke-width="2" fill="none" marker-end="url(#SvgjsMarker1167)"></path><rect id="SvgjsRect1169" width="357" height="16" x="15" y="305" fill="#ffffff"></rect><text id="SvgjsText1170" font-family="微软雅黑" text-anchor="middle" font-size="13px" width="357" fill="#323232" font-weight="400" align="top" anchor="middle" family="微软雅黑" size="13px" weight="400" font-style="" y="303.05" transform="rotate(0)"><tspan id="SvgjsTspan1171" dy="16" x="193.5"><tspan id="SvgjsTspan1172" style="text-decoration:;">6A. Successfully verified, redirect to previous request page</tspan></tspan></text></g><g id="SvgjsG1173"><path id="SvgjsPath1174" d="M365.5 380L267.5 380L267.5 380L169.5 380" stroke-dasharray="8,5" stroke="#323232" stroke-width="2" fill="none" marker-end="url(#SvgjsMarker1175)"></path><rect id="SvgjsRect1177" width="259" height="16" x="108" y="359" fill="#ffffff"></rect><text id="SvgjsText1178" font-family="微软雅黑" text-anchor="middle" font-size="13px" width="259" fill="#323232" font-weight="400" align="top" anchor="middle" family="微软雅黑" size="13px" weight="400" font-style="" y="357.05" transform="rotate(0)"><tspan id="SvgjsTspan1179" dy="16" x="237.5"><tspan id="SvgjsTspan1180" style="text-decoration:;">6B. Verification failed, flash error message</tspan></tspan></text></g></svg>