<svg id="SvgjsSvg1006" width="603" height="505" xmlns="http://www.w3.org/2000/svg" version="1.1" xmlns:xlink="http://www.w3.org/1999/xlink" xmlns:svgjs="http://svgjs.com/svgjs"><defs id="SvgjsDefs1007"><marker id="SvgjsMarker1031" markerWidth="16" markerHeight="12" refX="16" refY="6" viewBox="0 0 16 12" orient="auto" markerUnits="userSpaceOnUse"><path id="SvgjsPath1032" d="M0,2 L14,6 L0,11 L0,2" fill="#323232" stroke="#323232" stroke-width="2"></path></marker><marker id="SvgjsMarker1039" markerWidth="16" markerHeight="12" refX="16" refY="6" viewBox="0 0 16 12" orient="auto" markerUnits="userSpaceOnUse"><path id="SvgjsPath1040" d="M0,2 L14,6 L0,11 L0,2" fill="#323232" stroke="#323232" stroke-width="2"></path></marker><marker id="SvgjsMarker1047" markerWidth="16" markerHeight="12" refX="16" refY="6" viewBox="0 0 16 12" orient="auto" markerUnits="userSpaceOnUse"><path id="SvgjsPath1048" d="M0,2 L14,6 L0,11 L0,2" fill="#323232" stroke="#323232" stroke-width="2"></path></marker><marker id="SvgjsMarker1064" markerWidth="16" markerHeight="12" refX="16" refY="6" viewBox="0 0 16 12" orient="auto" markerUnits="userSpaceOnUse"><path id="SvgjsPath1065" d="M0,2 L14,6 L0,11 L0,2" fill="#323232" stroke="#323232" stroke-width="2"></path></marker><marker id="SvgjsMarker1072" markerWidth="16" markerHeight="12" refX="16" refY="6" viewBox="0 0 16 12" orient="auto" markerUnits="userSpaceOnUse"><path id="SvgjsPath1073" d="M0,2 L14,6 L0,11 L0,2" fill="#323232" stroke="#323232" stroke-width="2"></path></marker><marker id="SvgjsMarker1080" markerWidth="16" markerHeight="12" refX="16" refY="6" viewBox="0 0 16 12" orient="auto" markerUnits="userSpaceOnUse"><path id="SvgjsPath1081" d="M0,2 L14,6 L0,11 L0,2" fill="#323232" stroke="#323232" stroke-width="2"></path></marker><marker id="SvgjsMarker1088" markerWidth="16" markerHeight="12" refX="16" refY="6" viewBox="0 0 16 12" orient="auto" markerUnits="userSpaceOnUse"><path id="SvgjsPath1089" d="M0,2 L14,6 L0,11 L0,2" fill="#323232" stroke="#323232" stroke-width="2"></path></marker><marker id="SvgjsMarker1096" markerWidth="16" markerHeight="12" refX="16" refY="6" viewBox="0 0 16 12" orient="auto" markerUnits="userSpaceOnUse"><path id="SvgjsPath1097" d="M0,2 L14,6 L0,11 L0,2" fill="#323232" stroke="#323232" stroke-width="2"></path></marker><marker id="SvgjsMarker1104" markerWidth="16" markerHeight="12" refX="16" refY="6" viewBox="0 0 16 12" orient="auto" markerUnits="userSpaceOnUse"><path id="SvgjsPath1105" d="M0,2 L14,6 L0,11 L0,2" fill="#323232" stroke="#323232" stroke-width="2"></path></marker></defs><rect id="SvgjsRect1008" width="603" height="505" fill="#ffffff"></rect><g id="SvgjsG1009" transform="translate(25,25)"><path id="SvgjsPath1010" d="M 43 30L 43 455" stroke-dasharray="3,4" stroke="#323232" stroke-width="2" fill="none"></path><path id="SvgjsPath1011" d="M 0 0L 86 0L 86 30L 0 30Z" stroke="#323232" stroke-width="2" fill-opacity="1" fill="#ffffff"></path><g id="SvgjsG1012"><text id="SvgjsText1013" font-family="微软雅黑" text-anchor="middle" font-size="13px" width="55" fill="#323232" font-weight="400" align="middle" anchor="middle" family="微软雅黑" size="13px" weight="400" font-style="" y="-2.95" transform="rotate(0)"><tspan id="SvgjsTspan1014" dy="16" x="43"><tspan id="SvgjsTspan1015" style="text-decoration:;">User's </tspan></tspan><tspan id="SvgjsTspan1016" dy="16" x="43"><tspan id="SvgjsTspan1017" style="text-decoration:;">browsers</tspan></tspan></text></g></g><g id="SvgjsG1018" transform="translate(252,25)"><path id="SvgjsPath1019" d="M 44 30L 44 450" stroke-dasharray="3,4" stroke="#323232" stroke-width="2" fill="none"></path><path id="SvgjsPath1020" d="M 0 0L 88 0L 88 30L 0 30Z" stroke="#323232" stroke-width="2" fill-opacity="1" fill="#ffffff"></path><g id="SvgjsG1021"><text id="SvgjsText1022" font-family="微软雅黑" text-anchor="middle" font-size="13px" width="31" fill="#323232" font-weight="400" align="middle" anchor="middle" family="微软雅黑" size="13px" weight="400" font-style="" y="5.05" transform="rotate(0)"><tspan id="SvgjsTspan1023" dy="16" x="44"><tspan id="SvgjsTspan1024" style="text-decoration:;">Flask</tspan></tspan></text></g></g><g id="SvgjsG1025" transform="translate(55.5,67)"><path id="SvgjsPath1026" d="M 0 4Q 0 0 4 0L 26 0Q 30 0 30 4L 30 367Q 30 371 26 371L 4 371Q 0 371 0 367L 0 4Z" stroke="#323232" stroke-width="2" fill-opacity="1" fill="#ffffff"></path></g><g id="SvgjsG1027" transform="translate(281,76)"><path id="SvgjsPath1028" d="M 0 4Q 0 0 4 0L 26 0Q 30 0 30 4L 30 364Q 30 368 26 368L 4 368Q 0 368 0 364L 0 4Z" stroke="#323232" stroke-width="2" fill-opacity="1" fill="#ffffff"></path></g><g id="SvgjsG1029"><path id="SvgjsPath1030" d="M85 96L183 96L183 96L281 96" stroke="#323232" stroke-width="2" fill="none" marker-end="url(#SvgjsMarker1031)"></path><rect id="SvgjsRect1033" width="90" height="16" x="133.10000000000002" y="75" fill="#ffffff"></rect><text id="SvgjsText1034" font-family="微软雅黑" text-anchor="middle" font-size="13px" width="90" fill="#323232" font-weight="400" align="top" anchor="middle" family="微软雅黑" size="13px" weight="400" font-style="" y="73.05" transform="rotate(0)"><tspan id="SvgjsTspan1035" dy="16" x="178.10000000000002"><tspan id="SvgjsTspan1036" style="text-decoration:;">1. GET /signup</tspan></tspan></text></g><g id="SvgjsG1037"><path id="SvgjsPath1038" d="M281 143L183 143L183 143L85 143" stroke-dasharray="8,5" stroke="#323232" stroke-width="2" fill="none" marker-end="url(#SvgjsMarker1039)"></path><rect id="SvgjsRect1041" width="165" height="16" x="105.39999999999992" y="122" fill="#ffffff"></rect><text id="SvgjsText1042" font-family="微软雅黑" text-anchor="middle" font-size="13px" width="165" fill="#323232" font-weight="400" align="top" anchor="middle" family="微软雅黑" size="13px" weight="400" font-style="" y="120.05" transform="rotate(0)"><tspan id="SvgjsTspan1043" dy="16" x="187.89999999999992"><tspan id="SvgjsTspan1044" style="text-decoration:;">2. Return SignupForm View</tspan></tspan></text></g><g id="SvgjsG1045"><path id="SvgjsPath1046" d="M85 207L183 207L183 206.43037974683546L281 206.43037974683546" stroke="#323232" stroke-width="2" fill="none" marker-end="url(#SvgjsMarker1047)"></path><rect id="SvgjsRect1049" width="201" height="16" x="82.5" y="186" fill="#ffffff"></rect><text id="SvgjsText1050" font-family="微软雅黑" text-anchor="middle" font-size="13px" width="201" fill="#323232" font-weight="400" align="top" anchor="middle" family="微软雅黑" size="13px" weight="400" font-style="" y="184.05" transform="rotate(0)"><tspan id="SvgjsTspan1051" dy="16" x="183"><tspan id="SvgjsTspan1052" style="text-decoration:;">3. POST finished form to /signup</tspan></tspan></text></g><g id="SvgjsG1053" transform="translate(493,25)"><path id="SvgjsPath1054" d="M 42.5 30L 42.5 450" stroke-dasharray="3,4" stroke="#323232" stroke-width="2" fill="none"></path><path id="SvgjsPath1055" d="M 0 0L 85 0L 85 30L 0 30Z" stroke="#323232" stroke-width="2" fill-opacity="1" fill="#ffffff"></path><g id="SvgjsG1056"><text id="SvgjsText1057" font-family="微软雅黑" text-anchor="middle" font-size="13px" width="57" fill="#323232" font-weight="400" align="middle" anchor="middle" family="微软雅黑" size="13px" weight="400" font-style="" y="5.05" transform="rotate(0)"><tspan id="SvgjsTspan1058" dy="16" x="42.5"><tspan id="SvgjsTspan1059" style="text-decoration:;">Database</tspan></tspan></text></g></g><g id="SvgjsG1060" transform="translate(520.5,227)"><path id="SvgjsPath1061" d="M 0 4Q 0 0 4 0L 26 0Q 30 0 30 4L 30 175Q 30 179 26 179L 4 179Q 0 179 0 175L 0 4Z" stroke="#323232" stroke-width="2" fill-opacity="1" fill="#ffffff"></path></g><g id="SvgjsG1062"><path id="SvgjsPath1063" d="M311 240L416 240L416 240L521 240" stroke="#323232" stroke-width="2" fill="none" marker-end="url(#SvgjsMarker1064)"></path><rect id="SvgjsRect1066" width="174" height="16" x="323.7500000000001" y="219" fill="#ffffff"></rect><text id="SvgjsText1067" font-family="微软雅黑" text-anchor="middle" font-size="13px" width="174" fill="#323232" font-weight="400" align="top" anchor="middle" family="微软雅黑" size="13px" weight="400" font-style="" y="217.05" transform="rotate(0)"><tspan id="SvgjsTspan1068" dy="16" x="410.7500000000001"><tspan id="SvgjsTspan1069" style="text-decoration:;">4. Fetch User with username</tspan></tspan></text></g><g id="SvgjsG1070"><path id="SvgjsPath1071" d="M521 305L416 305L416 305L311 305" stroke-dasharray="8,5" stroke="#323232" stroke-width="2" fill="none" marker-end="url(#SvgjsMarker1072)"></path><rect id="SvgjsRect1074" width="207" height="16" x="317.5" y="284" fill="#ffffff"></rect><text id="SvgjsText1075" font-family="微软雅黑" text-anchor="middle" font-size="13px" width="207" fill="#323232" font-weight="400" align="top" anchor="middle" family="微软雅黑" size="13px" weight="400" font-style="" y="282.05" transform="rotate(0)"><tspan id="SvgjsTspan1076" dy="16" x="421"><tspan id="SvgjsTspan1077" style="text-decoration:;">5. Return a User instance or None</tspan></tspan></text></g><g id="SvgjsG1078"><path id="SvgjsPath1079" d="M281 370L183 370L183 370L85 370" stroke-dasharray="8,5" stroke="#323232" stroke-width="2" fill="none" marker-end="url(#SvgjsMarker1080)"></path><rect id="SvgjsRect1082" width="261" height="16" x="52.5" y="349" fill="#ffffff"></rect><text id="SvgjsText1083" font-family="微软雅黑" text-anchor="middle" font-size="13px" width="261" fill="#323232" font-weight="400" align="top" anchor="middle" family="微软雅黑" size="13px" weight="400" font-style="" y="347.05" transform="rotate(0)"><tspan id="SvgjsTspan1084" dy="16" x="183"><tspan id="SvgjsTspan1085" style="text-decoration:;">6B. Username existed, flash error message</tspan></tspan></text></g><g id="SvgjsG1086"><path id="SvgjsPath1087" d="M311 348L416 348L416 348L521 348" stroke="#323232" stroke-width="2" fill="none" marker-end="url(#SvgjsMarker1088)"></path><rect id="SvgjsRect1090" width="271" height="16" x="311.5" y="326" fill="#ffffff"></rect><text id="SvgjsText1091" font-family="微软雅黑" text-anchor="middle" font-size="13px" width="271" fill="#323232" font-weight="400" align="top" anchor="middle" family="微软雅黑" size="13px" weight="400" font-style="" y="324.05" transform="rotate(0)"><tspan id="SvgjsTspan1092" dy="16" x="447"><tspan id="SvgjsTspan1093" style="text-decoration:;">6A. Username not existed, initiate a new one</tspan></tspan></text></g><g id="SvgjsG1094"><path id="SvgjsPath1095" d="M521 393L416 393L416 393L311 393" stroke-dasharray="8,5" stroke="#323232" stroke-width="2" fill="none" marker-end="url(#SvgjsMarker1096)"></path><rect id="SvgjsRect1098" width="121" height="16" x="355.5" y="371" fill="#ffffff"></rect><text id="SvgjsText1099" font-family="微软雅黑" text-anchor="middle" font-size="13px" width="121" fill="#323232" font-weight="400" align="top" anchor="middle" family="微软雅黑" size="13px" weight="400" font-style="" y="369.05" transform="rotate(0)"><tspan id="SvgjsTspan1100" dy="16" x="416"><tspan id="SvgjsTspan1101" style="text-decoration:;">7. Creation succeed</tspan></tspan></text></g><g id="SvgjsG1102"><path id="SvgjsPath1103" d="M281 421L183 421L183 421L85 421" stroke-dasharray="8,5" stroke="#323232" stroke-width="2" fill="none" marker-end="url(#SvgjsMarker1104)"></path><rect id="SvgjsRect1106" width="123" height="16" x="121.5" y="400" fill="#ffffff"></rect><text id="SvgjsText1107" font-family="微软雅黑" text-anchor="middle" font-size="13px" width="123" fill="#323232" font-weight="400" align="top" anchor="middle" family="微软雅黑" size="13px" weight="400" font-style="" y="398.05" transform="rotate(0)"><tspan id="SvgjsTspan1108" dy="16" x="183"><tspan id="SvgjsTspan1109" style="text-decoration:;">8. Redirect to /login</tspan></tspan></text></g></svg>