<svg id="SvgjsSvg1006" width="435" height="505" xmlns="http://www.w3.org/2000/svg" version="1.1" xmlns:xlink="http://www.w3.org/1999/xlink" xmlns:svgjs="http://svgjs.com/svgjs"><defs id="SvgjsDefs1007"><marker id="SvgjsMarker1031" markerWidth="16" markerHeight="12" refX="16" refY="6" viewBox="0 0 16 12" orient="auto" markerUnits="userSpaceOnUse"><path id="SvgjsPath1032" d="M0,2 L14,6 L0,11 L0,2" fill="#323232" stroke="#323232" stroke-width="2"></path></marker><marker id="SvgjsMarker1039" markerWidth="16" markerHeight="12" refX="16" refY="6" viewBox="0 0 16 12" orient="auto" markerUnits="userSpaceOnUse"><path id="SvgjsPath1040" d="M0,2 L14,6 L0,11 L0,2" fill="#323232" stroke="#323232" stroke-width="2"></path></marker><marker id="SvgjsMarker1047" markerWidth="16" markerHeight="12" refX="16" refY="6" viewBox="0 0 16 12" orient="auto" markerUnits="userSpaceOnUse"><path id="SvgjsPath1048" d="M0,2 L14,6 L0,11 L0,2" fill="#323232" stroke="#323232" stroke-width="2"></path></marker></defs><rect id="SvgjsRect1008" width="435" height="505" fill="#ffffff"></rect><g id="SvgjsG1009" transform="translate(25.1875,25)"><path id="SvgjsPath1010" d="M 43 30L 43 455" stroke-dasharray="3,4" stroke="#323232" stroke-width="2" fill="none"></path><path id="SvgjsPath1011" d="M 0 0L 86 0L 86 30L 0 30Z" stroke="#323232" stroke-width="2" fill-opacity="1" fill="#ffffff"></path><g id="SvgjsG1012"><text id="SvgjsText1013" font-family="微软雅黑" text-anchor="middle" font-size="13px" width="55" fill="#323232" font-weight="400" align="middle" anchor="middle" family="微软雅黑" size="13px" weight="400" font-style="" y="-2.95" transform="rotate(0)"><tspan id="SvgjsTspan1014" dy="16" x="43"><tspan id="SvgjsTspan1015" style="text-decoration:;">User's </tspan></tspan><tspan id="SvgjsTspan1016" dy="16" x="43"><tspan id="SvgjsTspan1017" style="text-decoration:;">browsers</tspan></tspan></text></g></g><g id="SvgjsG1018" transform="translate(252.1875,25)"><path id="SvgjsPath1019" d="M 44 30L 44 450" stroke-dasharray="3,4" stroke="#323232" stroke-width="2" fill="none"></path><path id="SvgjsPath1020" d="M 0 0L 88 0L 88 30L 0 30Z" stroke="#323232" stroke-width="2" fill-opacity="1" fill="#ffffff"></path><g id="SvgjsG1021"><text id="SvgjsText1022" font-family="微软雅黑" text-anchor="middle" font-size="13px" width="31" fill="#323232" font-weight="400" align="middle" anchor="middle" family="微软雅黑" size="13px" weight="400" font-style="" y="5.05" transform="rotate(0)"><tspan id="SvgjsTspan1023" dy="16" x="44"><tspan id="SvgjsTspan1024" style="text-decoration:;">Flask</tspan></tspan></text></g></g><g id="SvgjsG1025" transform="translate(55.6875,67)"><path id="SvgjsPath1026" d="M 0 4Q 0 0 4 0L 26 0Q 30 0 30 4L 30 179Q 30 183 26 183L 4 183Q 0 183 0 179L 0 4Z" stroke="#323232" stroke-width="2" fill-opacity="1" fill="#ffffff"></path></g><g id="SvgjsG1027" transform="translate(281.1875,76)"><path id="SvgjsPath1028" d="M 0 4Q 0 0 4 0L 26 0Q 30 0 30 4L 30 170Q 30 174 26 174L 4 174Q 0 174 0 170L 0 4Z" stroke="#323232" stroke-width="2" fill-opacity="1" fill="#ffffff"></path></g><g id="SvgjsG1029"><path id="SvgjsPath1030" d="M85.1875 81.30458221024259L183.1875 81.30458221024259L183.1875 85.45652173913044L281.1875 85.45652173913044" stroke="#323232" stroke-width="2" fill="none" marker-end="url(#SvgjsMarker1031)"></path><rect id="SvgjsRect1033" width="88" height="16" x="134.28750000000002" y="60.304582210242586" fill="#ffffff"></rect><text id="SvgjsText1034" font-family="微软雅黑" text-anchor="middle" font-size="13px" width="88" fill="#323232" font-weight="400" align="top" anchor="middle" family="微软雅黑" size="13px" weight="400" font-style="" y="58.35458221024258" transform="rotate(0)"><tspan id="SvgjsTspan1035" dy="16" x="178.28750000000002"><tspan id="SvgjsTspan1036" style="text-decoration:;">1. GET /logout</tspan></tspan></text></g><g id="SvgjsG1037"><path id="SvgjsPath1038" d="M281.1875 163L183.1875 163L183.1875 166L85.1875 166" stroke-dasharray="8,5" stroke="#323232" stroke-width="2" fill="none" marker-end="url(#SvgjsMarker1039)"></path><rect id="SvgjsRect1041" width="405" height="16" x="14.987500000000011" y="142" fill="#ffffff"></rect><text id="SvgjsText1042" font-family="微软雅黑" text-anchor="middle" font-size="13px" width="405" fill="#323232" font-weight="400" align="top" anchor="middle" family="微软雅黑" size="13px" weight="400" font-style="" y="140.05" transform="rotate(0)"><tspan id="SvgjsTspan1043" dy="16" x="217.4875"><tspan id="SvgjsTspan1044" style="text-decoration:;">2A. Remove Current user's id from login manager and redirect to /</tspan></tspan></text></g><g id="SvgjsG1045"><path id="SvgjsPath1046" d="M281.1875 234L183.1875 234L183.1875 234L85.1875 234" stroke-dasharray="8,5" stroke="#323232" stroke-width="2" fill="none" marker-end="url(#SvgjsMarker1047)"></path><rect id="SvgjsRect1049" width="217" height="16" x="74.6875" y="213" fill="#ffffff"></rect><text id="SvgjsText1050" font-family="微软雅黑" text-anchor="middle" font-size="13px" width="217" fill="#323232" font-weight="400" align="top" anchor="middle" family="微软雅黑" size="13px" weight="400" font-style="" y="211.05" transform="rotate(0)"><tspan id="SvgjsTspan1051" dy="16" x="183.1875"><tspan id="SvgjsTspan1052" style="text-decoration:;">2B. Not logged in, redirect to /login</tspan></tspan></text></g></svg>